<svg xmlns="http://www.w3.org/2000/svg" xmlns:xlink="http://www.w3.org/1999/xlink" viewBox="0 0 809.04 239.47"><defs><style>.cls-1{font-size:88.99px;font-family:CocogooseClassicTrial-Medium, Cocogoose Classic Trial;font-weight:500;}.cls-1,.cls-8{fill:#013f5c;}.cls-2{letter-spacing:-0.08em;}.cls-3{letter-spacing:-0.04em;}.cls-4{letter-spacing:0em;}.cls-5,.cls-6{fill:#079cc2;}.cls-5,.cls-7{letter-spacing:0em;}.cls-6{letter-spacing:-0.04em;}.cls-9{fill:url(#linear-gradient);}.cls-10{fill:url(#linear-gradient-2);}</style><linearGradient id="linear-gradient" x1="371.65" y1="202.78" x2="1082.78" y2="-223.9" gradientTransform="translate(25.17 -12.41) rotate(1.47)" gradientUnits="userSpaceOnUse"><stop offset="0" stop-color="#079cc2"/><stop offset="1" stop-color="#013f5c"/></linearGradient><linearGradient id="linear-gradient-2" x1="78.45" y1="79.41" x2="580.96" y2="22.02" gradientTransform="translate(185.99 -74.4) rotate(10.69)" xlink:href="#linear-gradient"/></defs><title>Asset 1</title><g id="Layer_2" data-name="Layer 2"><g id="Layer_1-2" data-name="Layer 1"><text class="cls-1" transform="translate(0 192.97)"><tspan class="cls-2">Y</tspan><tspan class="cls-3" x="47.45" y="0">A</tspan><tspan x="105.72" y="0">CH</tspan><tspan class="cls-4" x="233.69" y="0">T</tspan><tspan class="cls-5" x="282.1" y="0">SE</tspan><tspan class="cls-6" x="392.25" y="0">T</tspan><tspan class="cls-7" x="437.62" y="0">GO</tspan></text><path class="cls-8" d="M38.33,214.87a8,8,0,0,1,3.41,3.24,10.93,10.93,0,0,1,0,9.88,7.8,7.8,0,0,1-3.41,3.19,11.61,11.61,0,0,1-5.25,1.11H27.3V213.74h5.78A11.48,11.48,0,0,1,38.33,214.87Zm.23,13.52a7.25,7.25,0,0,0,1.89-5.34,7.4,7.4,0,0,0-1.91-5.4,7.29,7.29,0,0,0-5.46-1.94H29.72v14.58h3.36A7.39,7.39,0,0,0,38.56,228.39Z"/><path class="cls-8" d="M46.2,214.86A1.65,1.65,0,0,1,47.37,212a1.52,1.52,0,0,1,1.13.48,1.72,1.72,0,0,1,0,2.34,1.52,1.52,0,0,1-1.13.48A1.58,1.58,0,0,1,46.2,214.86Zm2.34,2.85v14.58H46.12V217.71Z"/><path class="cls-8" d="M54.82,232a5.22,5.22,0,0,1-2.11-1.6,4.36,4.36,0,0,1-.85-2.35h2.5a2.5,2.5,0,0,0,1,1.78,3.89,3.89,0,0,0,2.41.69,3.55,3.55,0,0,0,2.18-.61,1.89,1.89,0,0,0,.8-1.55,1.53,1.53,0,0,0-.85-1.42,12,12,0,0,0-2.64-.92,19.75,19.75,0,0,1-2.65-.86,4.78,4.78,0,0,1-1.75-1.31,3.37,3.37,0,0,1-.73-2.27,3.46,3.46,0,0,1,.66-2A4.51,4.51,0,0,1,54.71,218a6.86,6.86,0,0,1,2.8-.54,6,6,0,0,1,3.91,1.22A4.41,4.41,0,0,1,63,222H60.59a2.48,2.48,0,0,0-.92-1.83,3.42,3.42,0,0,0-2.25-.69,3.46,3.46,0,0,0-2.07.55,1.74,1.74,0,0,0-.77,1.47,1.59,1.59,0,0,0,.46,1.18,3.47,3.47,0,0,0,1.17.75c.47.18,1.12.39,2,.62a21.38,21.38,0,0,1,2.56.84,4.36,4.36,0,0,1,1.68,1.24,3.3,3.3,0,0,1,.74,2.15,3.73,3.73,0,0,1-.67,2.16A4.37,4.37,0,0,1,60.6,232a6.73,6.73,0,0,1-2.78.55A7.53,7.53,0,0,1,54.82,232Z"/><path class="cls-8" d="M66.55,221a6.49,6.49,0,0,1,2.52-2.62,8,8,0,0,1,8.11.37,6.23,6.23,0,0,1,2.31,3.62H76.88a3.76,3.76,0,0,0-1.45-2.1,4.45,4.45,0,0,0-2.68-.77,4.28,4.28,0,0,0-3.35,1.42,5.84,5.84,0,0,0-1.28,4A5.93,5.93,0,0,0,69.4,229a4.26,4.26,0,0,0,3.35,1.44,4.49,4.49,0,0,0,2.66-.75,3.77,3.77,0,0,0,1.47-2.12h2.61a6.37,6.37,0,0,1-2.35,3.57,7,7,0,0,1-4.39,1.35,7.21,7.21,0,0,1-3.68-.93A6.48,6.48,0,0,1,66.55,229a8.39,8.39,0,0,1-.9-4A8.28,8.28,0,0,1,66.55,221Z"/><path class="cls-8" d="M85.35,231.6a6.57,6.57,0,0,1-2.6-2.65,8.11,8.11,0,0,1-1-4,8,8,0,0,1,1-3.95,6.73,6.73,0,0,1,2.65-2.64,8.18,8.18,0,0,1,7.5,0A6.81,6.81,0,0,1,95.57,221a7.86,7.86,0,0,1,1,4,7.72,7.72,0,0,1-1,4,6.92,6.92,0,0,1-2.69,2.65,7.79,7.79,0,0,1-3.79.93A7.49,7.49,0,0,1,85.35,231.6Zm6.16-1.81A4.67,4.67,0,0,0,93.36,228a5.87,5.87,0,0,0,.71-3,6,6,0,0,0-.69-3,4.53,4.53,0,0,0-1.81-1.82,5.22,5.22,0,0,0-4.86,0A4.32,4.32,0,0,0,84.94,222a6.19,6.19,0,0,0-.66,3,6.29,6.29,0,0,0,.65,3,4.32,4.32,0,0,0,1.74,1.82,4.9,4.9,0,0,0,2.39.6A5.09,5.09,0,0,0,91.51,229.79Z"/><path class="cls-8" d="M105.16,230.05l4.53-12.34h2.58l-5.72,14.58h-2.82L98,217.71h2.61Z"/><path class="cls-8" d="M127.89,225.9H116.23a4.59,4.59,0,0,0,4.74,4.58,4.47,4.47,0,0,0,2.62-.73,3.92,3.92,0,0,0,1.48-2h2.6a6.28,6.28,0,0,1-2.34,3.42,7,7,0,0,1-4.36,1.32,7.35,7.35,0,0,1-3.71-.93,6.56,6.56,0,0,1-2.57-2.65,8.21,8.21,0,0,1-.93-4,8.39,8.39,0,0,1,.9-4,6.48,6.48,0,0,1,2.54-2.62,7.62,7.62,0,0,1,3.77-.91,7.37,7.37,0,0,1,3.67.9,6.2,6.2,0,0,1,2.46,2.49,7.32,7.32,0,0,1,.87,3.58C128,224.9,127.94,225.39,127.89,225.9Zm-3-4.35a4.06,4.06,0,0,0-1.66-1.52,5.27,5.27,0,0,0-2.33-.51,4.5,4.5,0,0,0-3.13,1.17,4.78,4.78,0,0,0-1.47,3.24h9.2A4.46,4.46,0,0,0,124.85,221.55Z"/><path class="cls-8" d="M135.41,218.13a5.63,5.63,0,0,1,2.88-.69v2.5h-.63q-4.08,0-4.08,4.42v7.93h-2.42V217.71h2.42v2.36A4.69,4.69,0,0,1,135.41,218.13Z"/><path class="cls-8" d="M150.61,212.6v19.69h-2.42V212.6Z"/><path class="cls-8" d="M167.67,217.71v14.58h-2.42v-2.16a4.71,4.71,0,0,1-1.93,1.74,6,6,0,0,1-2.73.63,6.57,6.57,0,0,1-3.06-.7,5.14,5.14,0,0,1-2.14-2.12,6.88,6.88,0,0,1-.79-3.43v-8.54H157v8.22a4.62,4.62,0,0,0,1.09,3.31,3.91,3.91,0,0,0,3,1.16,4,4,0,0,0,3.06-1.2,4.9,4.9,0,0,0,1.12-3.48v-8Z"/><path class="cls-8" d="M179.38,232.29l-3.46-5.43-3.33,5.43h-2.53l4.71-7.24-4.71-7.34h2.74l3.46,5.4,3.3-5.4h2.53l-4.68,7.21,4.71,7.37Z"/><path class="cls-8" d="M197.45,217.71v14.58H195v-2.16a4.59,4.59,0,0,1-1.93,1.74,5.89,5.89,0,0,1-2.72.63,6.51,6.51,0,0,1-3.06-.7,5.16,5.16,0,0,1-2.15-2.12,7,7,0,0,1-.78-3.43v-8.54h2.39v8.22a4.67,4.67,0,0,0,1.09,3.31,3.91,3.91,0,0,0,3,1.16,4,4,0,0,0,3.06-1.2,4.9,4.9,0,0,0,1.12-3.48v-8Z"/><path class="cls-8" d="M205.79,218.13a5.65,5.65,0,0,1,2.89-.69v2.5H208q-4.08,0-4.08,4.42v7.93h-2.42V217.71H204v2.36A4.69,4.69,0,0,1,205.79,218.13Z"/><path class="cls-8" d="M224,217.71l-8.78,21.44h-2.5l2.87-7-5.88-14.42h2.69L217,229.52l4.52-11.81Z"/><path class="cls-8" d="M236.2,231.6a6.57,6.57,0,0,1-2.6-2.65,8.11,8.11,0,0,1-.95-4,8,8,0,0,1,1-3.95,6.73,6.73,0,0,1,2.65-2.64,8.18,8.18,0,0,1,7.5,0,6.81,6.81,0,0,1,2.65,2.62,7.86,7.86,0,0,1,1,4,7.72,7.72,0,0,1-1,4,6.92,6.92,0,0,1-2.69,2.65,7.79,7.79,0,0,1-3.79.93A7.49,7.49,0,0,1,236.2,231.6Zm6.16-1.81a4.67,4.67,0,0,0,1.85-1.84,5.87,5.87,0,0,0,.71-3,6,6,0,0,0-.69-3,4.53,4.53,0,0,0-1.81-1.82,5.22,5.22,0,0,0-4.86,0,4.32,4.32,0,0,0-1.77,1.82,6.19,6.19,0,0,0-.66,3,6.29,6.29,0,0,0,.65,3,4.32,4.32,0,0,0,1.74,1.82,4.9,4.9,0,0,0,2.39.6A5.09,5.09,0,0,0,242.36,229.79Z"/><path class="cls-8" d="M262,219.05a6.19,6.19,0,0,1,1.65,4.64v8.6h-2.39V224a4.67,4.67,0,0,0-1.1-3.34,3.89,3.89,0,0,0-3-1.16,4,4,0,0,0-3,1.2,4.86,4.86,0,0,0-1.14,3.48v8.07h-2.42V217.71H253v2.07a4.91,4.91,0,0,1,2-1.73,6,6,0,0,1,2.73-.61A5.93,5.93,0,0,1,262,219.05Z"/><path class="cls-8" d="M277.67,219.7v8.6a2,2,0,0,0,.46,1.5,2.22,2.22,0,0,0,1.56.44h1.79v2H279.3a4.37,4.37,0,0,1-3-.93,4,4,0,0,1-1-3.06v-8.6h-1.89v-2h1.89V214h2.42v3.68h3.81v2Z"/><path class="cls-8" d="M294.62,218.14a5,5,0,0,1,2.09,2.12,7.12,7.12,0,0,1,.76,3.43v8.6h-2.39V224a4.67,4.67,0,0,0-1.1-3.34,3.89,3.89,0,0,0-3-1.16,4,4,0,0,0-3,1.2,4.86,4.86,0,0,0-1.13,3.48v8.07h-2.42V212.6h2.42v7.18a4.84,4.84,0,0,1,2-1.73,6.78,6.78,0,0,1,5.81.09Z"/><path class="cls-8" d="M314.66,225.9H303a4.57,4.57,0,0,0,4.73,4.58,4.43,4.43,0,0,0,2.62-.73,3.81,3.81,0,0,0,1.48-2h2.61a6.28,6.28,0,0,1-2.34,3.42,7.07,7.07,0,0,1-4.37,1.32,7.38,7.38,0,0,1-3.71-.93,6.63,6.63,0,0,1-2.57-2.65,9,9,0,0,1,0-7.95,6.41,6.41,0,0,1,2.54-2.62,7.56,7.56,0,0,1,3.76-.91,7.38,7.38,0,0,1,3.68.9,6.27,6.27,0,0,1,2.46,2.49,7.43,7.43,0,0,1,.86,3.58A12.47,12.47,0,0,1,314.66,225.9Zm-3-4.35A4.06,4.06,0,0,0,310,220a5.27,5.27,0,0,0-2.33-.51,4.49,4.49,0,0,0-3.13,1.17,4.74,4.74,0,0,0-1.47,3.24h9.2A4.46,4.46,0,0,0,311.63,221.55Z"/><path class="cls-8" d="M335.26,218.14a5.09,5.09,0,0,1,2.09,2.12,7.24,7.24,0,0,1,.75,3.43v8.6h-2.39V224a4.67,4.67,0,0,0-1.09-3.34,3.91,3.91,0,0,0-3-1.16,4,4,0,0,0-3.05,1.2,4.91,4.91,0,0,0-1.13,3.48v8.07H325V212.6h2.42v7.18a4.84,4.84,0,0,1,2-1.73,6.8,6.8,0,0,1,5.82.09Z"/><path class="cls-8" d="M342.15,214.86a1.65,1.65,0,0,1,1.17-2.82,1.52,1.52,0,0,1,1.13.48,1.69,1.69,0,0,1,0,2.34,1.52,1.52,0,0,1-1.13.48A1.59,1.59,0,0,1,342.15,214.86Zm2.34,2.85v14.58h-2.42V217.71Z"/><path class="cls-8" d="M357.94,218.29a5.44,5.44,0,0,1,2.12,2.08v-2.66h2.45v14.9a7.26,7.26,0,0,1-.86,3.55,6,6,0,0,1-2.43,2.43,7.39,7.39,0,0,1-3.68.88,8.14,8.14,0,0,1-4.8-1.35,5.34,5.34,0,0,1-2.26-3.7h2.4a3.77,3.77,0,0,0,1.65,2.14,5.39,5.39,0,0,0,3,.81,4.48,4.48,0,0,0,3.26-1.25,4.73,4.73,0,0,0,1.26-3.51v-3.06a5.77,5.77,0,0,1-2.13,2.12,6.15,6.15,0,0,1-3.3.86,6.64,6.64,0,0,1-6-3.65,8.3,8.3,0,0,1-.91-3.94,8.1,8.1,0,0,1,.91-3.92,6.49,6.49,0,0,1,2.49-2.62,6.81,6.81,0,0,1,3.52-.93A6.48,6.48,0,0,1,357.94,218.29Zm1.45,3.81a4.71,4.71,0,0,0-1.79-1.88,5.11,5.11,0,0,0-5,0,4.63,4.63,0,0,0-1.78,1.86,6,6,0,0,0-.66,2.87,6.14,6.14,0,0,0,.66,2.92,4.68,4.68,0,0,0,4.26,2.54,5,5,0,0,0,2.49-.65,4.73,4.73,0,0,0,1.79-1.89,6,6,0,0,0,.67-2.89A5.83,5.83,0,0,0,359.39,222.1Z"/><path class="cls-8" d="M376.82,218.14a5,5,0,0,1,2.09,2.12,7.24,7.24,0,0,1,.76,3.43v8.6h-2.4V224a4.67,4.67,0,0,0-1.09-3.34,3.91,3.91,0,0,0-3-1.16,4,4,0,0,0-3.05,1.2,4.91,4.91,0,0,0-1.13,3.48v8.07H366.6V212.6H369v7.18a4.8,4.8,0,0,1,2-1.73,6.78,6.78,0,0,1,5.81.09Z"/><path class="cls-8" d="M392.9,232a5.22,5.22,0,0,1-2.11-1.6,4.36,4.36,0,0,1-.85-2.35h2.5a2.5,2.5,0,0,0,1,1.78,3.89,3.89,0,0,0,2.41.69,3.55,3.55,0,0,0,2.18-.61,1.89,1.89,0,0,0,.8-1.55,1.52,1.52,0,0,0-.86-1.42,11.64,11.64,0,0,0-2.63-.92,19.75,19.75,0,0,1-2.65-.86,4.78,4.78,0,0,1-1.75-1.31,3.37,3.37,0,0,1-.73-2.27,3.46,3.46,0,0,1,.66-2,4.45,4.45,0,0,1,1.89-1.48,6.84,6.84,0,0,1,2.79-.54,6,6,0,0,1,3.92,1.22,4.41,4.41,0,0,1,1.59,3.35h-2.42a2.48,2.48,0,0,0-.92-1.83,4.09,4.09,0,0,0-4.32-.14,1.74,1.74,0,0,0-.77,1.47,1.59,1.59,0,0,0,.46,1.18,3.47,3.47,0,0,0,1.17.75c.47.18,1.12.39,2,.62a20.56,20.56,0,0,1,2.55.84,4.39,4.39,0,0,1,1.69,1.24,3.25,3.25,0,0,1,.73,2.15,3.72,3.72,0,0,1-.66,2.16,4.37,4.37,0,0,1-1.88,1.5,6.73,6.73,0,0,1-2.78.55A7.5,7.5,0,0,1,392.9,232Z"/><path class="cls-8" d="M417.85,225.9H406.2a4.57,4.57,0,0,0,4.73,4.58,4.43,4.43,0,0,0,2.62-.73,3.81,3.81,0,0,0,1.48-2h2.61a6.28,6.28,0,0,1-2.34,3.42,7.07,7.07,0,0,1-4.37,1.32,7.38,7.38,0,0,1-3.71-.93,6.63,6.63,0,0,1-2.57-2.65,9,9,0,0,1,0-7.95,6.41,6.41,0,0,1,2.54-2.62,7.56,7.56,0,0,1,3.76-.91,7.38,7.38,0,0,1,3.68.9,6.27,6.27,0,0,1,2.46,2.49,7.43,7.43,0,0,1,.86,3.58A12.47,12.47,0,0,1,417.85,225.9Zm-3-4.35a4.06,4.06,0,0,0-1.66-1.52,5.27,5.27,0,0,0-2.33-.51,4.49,4.49,0,0,0-3.13,1.17,4.74,4.74,0,0,0-1.47,3.24h9.2A4.46,4.46,0,0,0,414.82,221.55Z"/><path class="cls-8" d="M421.13,221a6.49,6.49,0,0,1,2.49-2.62,6.81,6.81,0,0,1,3.52-.93,6.47,6.47,0,0,1,3.33.82,5.45,5.45,0,0,1,2.1,2.08v-2.66H435v14.58h-2.45v-2.72a5.66,5.66,0,0,1-2.14,2.12,6.39,6.39,0,0,1-3.31.84,6.56,6.56,0,0,1-3.51-1,6.66,6.66,0,0,1-2.48-2.69,8.42,8.42,0,0,1-.91-3.94A8.22,8.22,0,0,1,421.13,221Zm10.77,1.08a4.71,4.71,0,0,0-1.79-1.88,5.09,5.09,0,0,0-5,0,4.59,4.59,0,0,0-1.79,1.86,6,6,0,0,0-.66,2.87,6.14,6.14,0,0,0,.66,2.92,4.7,4.7,0,0,0,4.26,2.54,4.92,4.92,0,0,0,2.49-.65,4.73,4.73,0,0,0,1.79-1.89,6,6,0,0,0,.67-2.89A5.83,5.83,0,0,0,431.9,222.1Z"/><path class="cls-8" d="M441.27,232a5.12,5.12,0,0,1-2.1-1.6,4.2,4.2,0,0,1-.85-2.35h2.5a2.46,2.46,0,0,0,1,1.78,3.91,3.91,0,0,0,2.41.69,3.55,3.55,0,0,0,2.18-.61,1.87,1.87,0,0,0,.8-1.55,1.51,1.51,0,0,0-.85-1.42,12,12,0,0,0-2.63-.92,18.83,18.83,0,0,1-2.65-.86,4.73,4.73,0,0,1-1.76-1.31,3.37,3.37,0,0,1-.73-2.27,3.4,3.4,0,0,1,.67-2,4.45,4.45,0,0,1,1.89-1.48,6.81,6.81,0,0,1,2.79-.54,6,6,0,0,1,3.91,1.22,4.42,4.42,0,0,1,1.6,3.35h-2.42a2.51,2.51,0,0,0-.92-1.83,3.44,3.44,0,0,0-2.25-.69,3.51,3.51,0,0,0-2.08.55,1.76,1.76,0,0,0-.77,1.47,1.6,1.6,0,0,0,.47,1.18,3.47,3.47,0,0,0,1.17.75c.47.18,1.12.39,1.95.62a21.38,21.38,0,0,1,2.56.84,4.39,4.39,0,0,1,1.69,1.24,3.3,3.3,0,0,1,.73,2.15,3.66,3.66,0,0,1-.67,2.16,4.4,4.4,0,0,1-1.87,1.5,6.79,6.79,0,0,1-2.78.55A7.58,7.58,0,0,1,441.27,232Z"/><path class="cls-8" d="M452.61,232a1.67,1.67,0,0,1,0-2.34,1.56,1.56,0,0,1,1.17-.48,1.52,1.52,0,0,1,1.13.48,1.72,1.72,0,0,1,0,2.34,1.52,1.52,0,0,1-1.13.48A1.56,1.56,0,0,1,452.61,232Z"/><path class="cls-9" d="M287.55,118s130.19-64.7,293.93-70.8S809,44.83,809,44.83s-15.54,42.9-52.9,79.06-50.6,43.37-90.45,43-85.75-6.32-85.75-6.32,61.76,3.65,98.76-18.77S745.84,70,745.84,70,426.35,65.93,287.55,118Z"/><path class="cls-10" d="M368.93,69.27S598.48,9,688.92,33.36c0,0-77.63-34.51-114.4-33.33S412.39,49.85,368.93,69.27Z"/></g></g></svg>